<svg width="70" height="70" viewBox="0 0 70 70" fill="none" xmlns="http://www.w3.org/2000/svg">
<g clip-path="url(#clip0_103_3)">
<path d="M70 0H0V70H70V0Z" fill="white"/>
<mask id="mask0_103_3" style="mask-type:luminance" maskUnits="userSpaceOnUse" x="3" y="3" width="64" height="64">
<path d="M4.9 16.1H3.5V17.5H4.9V16.1Z" fill="white"/>
<path d="M4.9 20.3H3.5V21.7H4.9V20.3Z" fill="white"/>
<path d="M4.9 21.7H3.5V23.1H4.9V21.7Z" fill="white"/>
<path d="M4.9 23.1H3.5V24.5H4.9V23.1Z" fill="white"/>
<path d="M4.9 24.5H3.5V25.9H4.9V24.5Z" fill="white"/>
<path d="M4.9 25.9H3.5V27.3H4.9V25.9Z" fill="white"/>
<path d="M4.9 28.7H3.5V30.1H4.9V28.7Z" fill="white"/>
<path d="M4.9 30.1H3.5V31.5H4.9V30.1Z" fill="white"/>
<path d="M4.9 35.7H3.5V37.1H4.9V35.7Z" fill="white"/>
<path d="M4.9 37.1H3.5V38.5H4.9V37.1Z" fill="white"/>
<path d="M4.9 38.5H3.5V39.9H4.9V38.5Z" fill="white"/>
<path d="M4.9 39.9H3.5V41.3H4.9V39.9Z" fill="white"/>
<path d="M4.9 41.3H3.5V42.7H4.9V41.3Z" fill="white"/>
<path d="M4.9 42.7H3.5V44.1H4.9V42.7Z" fill="white"/>
<path d="M4.9 44.1H3.5V45.5H4.9V44.1Z" fill="white"/>
<path d="M4.9 45.5H3.5V46.9H4.9V45.5Z" fill="white"/>
<path d="M4.9 46.9H3.5V48.3H4.9V46.9Z" fill="white"/>
<path d="M4.9 48.3H3.5V49.7H4.9V48.3Z" fill="white"/>
<path d="M4.9 53.9H3.5V55.3H4.9V53.9Z" fill="white"/>
<path d="M6.3 17.5H4.9V18.9H6.3V17.5Z" fill="white"/>
<path d="M6.3 31.5H4.9V32.9H6.3V31.5Z" fill="white"/>
<path d="M6.3 32.9H4.9V34.3H6.3V32.9Z" fill="white"/>
<path d="M6.3 34.3H4.9V35.7H6.3V34.3Z" fill="white"/>
<path d="M6.3 35.7H4.9V37.1H6.3V35.7Z" fill="white"/>
<path d="M6.3 37.1H4.9V38.5H6.3V37.1Z" fill="white"/>
<path d="M6.3 41.3H4.9V42.7H6.3V41.3Z" fill="white"/>
<path d="M6.3 44.1H4.9V45.5H6.3V44.1Z" fill="white"/>
<path d="M6.3 48.3H4.9V49.7H6.3V48.3Z" fill="white"/>
<path d="M6.3 52.5H4.9V53.9H6.3V52.5Z" fill="white"/>
<path d="M7.7 14.7H6.3V16.1H7.7V14.7Z" fill="white"/>
<path d="M7.7 16.1H6.3V17.5H7.7V16.1Z" fill="white"/>
<path d="M7.7 18.9H6.3V20.3H7.7V18.9Z" fill="white"/>
<path d="M7.7 23.1H6.3V24.5H7.7V23.1Z" fill="white"/>
<path d="M7.7 25.9H6.3V27.3H7.7V25.9Z" fill="white"/>
<path d="M7.7 27.3H6.3V28.7H7.7V27.3Z" fill="white"/>
<path d="M7.7 28.7H6.3V30.1H7.7V28.7Z" fill="white"/>
<path d="M7.7 30.1H6.3V31.5H7.7V30.1Z" fill="white"/>
<path d="M7.7 32.9H6.3V34.3H7.7V32.9Z" fill="white"/>
<path d="M7.7 35.7H6.3V37.1H7.7V35.7Z" fill="white"/>
<path d="M7.7 39.9H6.3V41.3H7.7V39.9Z" fill="white"/>
<path d="M7.7 41.3H6.3V42.7H7.7V41.3Z" fill="white"/>
<path d="M7.7 42.7H6.3V44.1H7.7V42.7Z" fill="white"/>
<path d="M7.7 45.5H6.3V46.9H7.7V45.5Z" fill="white"/>
<path d="M7.7 48.3H6.3V49.7H7.7V48.3Z" fill="white"/>
<path d="M7.7 49.7H6.3V51.1H7.7V49.7Z" fill="white"/>
<path d="M7.7 52.5H6.3V53.9H7.7V52.5Z" fill="white"/>
<path d="M9.1 16.1H7.7V17.5H9.1V16.1Z" fill="white"/>
<path d="M9.1 17.5H7.7V18.9H9.1V17.5Z" fill="white"/>
<path d="M9.1 21.7H7.7V23.1H9.1V21.7Z" fill="white"/>
<path d="M9.1 23.1H7.7V24.5H9.1V23.1Z" fill="white"/>
<path d="M9.1 25.9H7.7V27.3H9.1V25.9Z" fill="white"/>
<path d="M9.1 27.3H7.7V28.7H9.1V27.3Z" fill="white"/>
<path d="M9.1 28.7H7.7V30.1H9.1V28.7Z" fill="white"/>
<path d="M9.1 30.1H7.7V31.5H9.1V30.1Z" fill="white"/>
<path d="M9.1 31.5H7.7V32.9H9.1V31.5Z" fill="white"/>
<path d="M9.1 32.9H7.7V34.3H9.1V32.9Z" fill="white"/>
<path d="M9.1 35.7H7.7V37.1H9.1V35.7Z" fill="white"/>
<path d="M9.1 37.1H7.7V38.5H9.1V37.1Z" fill="white"/>
<path d="M9.1 38.5H7.7V39.9H9.1V38.5Z" fill="white"/>
<path d="M9.1 39.9H7.7V41.3H9.1V39.9Z" fill="white"/>
<path d="M9.1 42.7H7.7V44.1H9.1V42.7Z" fill="white"/>
<path d="M9.1 45.5H7.7V46.9H9.1V45.5Z" fill="white"/>
<path d="M9.1 46.9H7.7V48.3H9.1V46.9Z" fill="white"/>
<path d="M9.1 52.5H7.7V53.9H9.1V52.5Z" fill="white"/>
<path d="M9.1 53.9H7.7V55.3H9.1V53.9Z" fill="white"/>
<path d="M10.5 14.7H9.1V16.1H10.5V14.7Z" fill="white"/>
<path d="M10.5 20.3H9.1V21.7H10.5V20.3Z" fill="white"/>
<path d="M10.5 24.5H9.1V25.9H10.5V24.5Z" fill="white"/>
<path d="M10.5 25.9H9.1V27.3H10.5V25.9Z" fill="white"/>
<path d="M10.5 27.3H9.1V28.7H10.5V27.3Z" fill="white"/>
<path d="M10.5 30.1H9.1V31.5H10.5V30.1Z" fill="white"/>
<path d="M10.5 31.5H9.1V32.9H10.5V31.5Z" fill="white"/>
<path d="M10.5 32.9H9.1V34.3H10.5V32.9Z" fill="white"/>
<path d="M10.5 34.3H9.1V35.7H10.5V34.3Z" fill="white"/>
<path d="M10.5 35.7H9.1V37.1H10.5V35.7Z" fill="white"/>
<path d="M10.5 37.1H9.1V38.5H10.5V37.1Z" fill="white"/>
<path d="M10.5 38.5H9.1V39.9H10.5V38.5Z" fill="white"/>
<path d="M10.5 39.9H9.1V41.3H10.5V39.9Z" fill="white"/>
<path d="M10.5 44.1H9.1V45.5H10.5V44.1Z" fill="white"/>
<path d="M10.5 45.5H9.1V46.9H10.5V45.5Z" fill="white"/>
<path d="M10.5 51.1H9.1V52.5H10.5V51.1Z" fill="white"/>
<path d="M10.5 52.5H9.1V53.9H10.5V52.5Z" fill="white"/>
<path d="M10.5 53.9H9.1V55.3H10.5V53.9Z" fill="white"/>
<path d="M11.9 14.7H10.5V16.1H11.9V14.7Z" fill="white"/>
<path d="M11.9 16.1H10.5V17.5H11.9V16.1Z" fill="white"/>
<path d="M11.9 17.5H10.5V18.9H11.9V17.5Z" fill="white"/>
<path d="M11.9 23.1H10.5V24.5H11.9V23.1Z" fill="white"/>
<path d="M11.9 24.5H10.5V25.9H11.9V24.5Z" fill="white"/>
<path d="M11.9 31.5H10.5V32.9H11.9V31.5Z" fill="white"/>
<path d="M11.9 37.1H10.5V38.5H11.9V37.1Z" fill="white"/>
<path d="M11.9 38.5H10.5V39.9H11.9V38.5Z" fill="white"/>
<path d="M11.9 39.9H10.5V41.3H11.9V39.9Z" fill="white"/>
<path d="M11.9 41.3H10.5V42.7H11.9V41.3Z" fill="white"/>
<path d="M13.3 14.7H11.9V16.1H13.3V14.7Z" fill="white"/>
<path d="M13.3 17.5H11.9V18.9H13.3V17.5Z" fill="white"/>
<path d="M13.3 20.3H11.9V21.7H13.3V20.3Z" fill="white"/>
<path d="M13.3 23.1H11.9V24.5H13.3V23.1Z" fill="white"/>
<path d="M13.3 25.9H11.9V27.3H13.3V25.9Z" fill="white"/>
<path d="M13.3 28.7H11.9V30.1H13.3V28.7Z" fill="white"/>
<path d="M13.3 31.5H11.9V32.9H13.3V31.5Z" fill="white"/>
<path d="M13.3 34.3H11.9V35.7H13.3V34.3Z" fill="white"/>
<path d="M13.3 37.1H11.9V38.5H13.3V37.1Z" fill="white"/>
<path d="M13.3 39.9H11.9V41.3H13.3V39.9Z" fill="white"/>
<path d="M13.3 42.7H11.9V44.1H13.3V42.7Z" fill="white"/>
<path d="M13.3 45.5H11.9V46.9H13.3V45.5Z" fill="white"/>
<path d="M13.3 48.3H11.9V49.7H13.3V48.3Z" fill="white"/>
<path d="M13.3 51.1H11.9V52.5H13.3V51.1Z" fill="white"/>
<path d="M13.3 53.9H11.9V55.3H13.3V53.9Z" fill="white"/>
<path d="M14.7 17.5H13.3V18.9H14.7V17.5Z" fill="white"/>
<path d="M14.7 21.7H13.3V23.1H14.7V21.7Z" fill="white"/>
<path d="M14.7 23.1H13.3V24.5H14.7V23.1Z" fill="white"/>
<path d="M14.7 27.3H13.3V28.7H14.7V27.3Z" fill="white"/>
<path d="M14.7 30.1H13.3V31.5H14.7V30.1Z" fill="white"/>
<path d="M14.7 31.5H13.3V32.9H14.7V31.5Z" fill="white"/>
<path d="M14.7 37.1H13.3V38.5H14.7V37.1Z" fill="white"/>
<path d="M14.7 46.9H13.3V48.3H14.7V46.9Z" fill="white"/>
<path d="M14.7 48.3H13.3V49.7H14.7V48.3Z" fill="white"/>
<path d="M14.7 49.7H13.3V51.1H14.7V49.7Z" fill="white"/>
<path d="M14.7 51.1H13.3V52.5H14.7V51.1Z" fill="white"/>
<path d="M16.1 4.89999H14.7V6.29999H16.1V4.89999Z" fill="white"/>
<path d="M16.1 9.10001H14.7V10.5H16.1V9.10001Z" fill="white"/>
<path d="M16.1 11.9H14.7V13.3H16.1V11.9Z" fill="white"/>
<path d="M16.1 14.7H14.7V16.1H16.1V14.7Z" fill="white"/>
<path d="M16.1 16.1H14.7V17.5H16.1V16.1Z" fill="white"/>
<path d="M16.1 17.5H14.7V18.9H16.1V17.5Z" fill="white"/>
<path d="M16.1 18.9H14.7V20.3H16.1V18.9Z" fill="white"/>
<path d="M16.1 20.3H14.7V21.7H16.1V20.3Z" fill="white"/>
<path d="M16.1 23.1H14.7V24.5H16.1V23.1Z" fill="white"/>
<path d="M16.1 24.5H14.7V25.9H16.1V24.5Z" fill="white"/>
<path d="M16.1 31.5H14.7V32.9H16.1V31.5Z" fill="white"/>
<path d="M16.1 32.9H14.7V34.3H16.1V32.9Z" fill="white"/>
<path d="M16.1 34.3H14.7V35.7H16.1V34.3Z" fill="white"/>
<path d="M16.1 35.7H14.7V37.1H16.1V35.7Z" fill="white"/>
<path d="M16.1 37.1H14.7V38.5H16.1V37.1Z" fill="white"/>
<path d="M16.1 38.5H14.7V39.9H16.1V38.5Z" fill="white"/>
<path d="M16.1 41.3H14.7V42.7H16.1V41.3Z" fill="white"/>
<path d="M16.1 44.1H14.7V45.5H16.1V44.1Z" fill="white"/>
<path d="M16.1 45.5H14.7V46.9H16.1V45.5Z" fill="white"/>
<path d="M16.1 48.3H14.7V49.7H16.1V48.3Z" fill="white"/>
<path d="M16.1 49.7H14.7V51.1H16.1V49.7Z" fill="white"/>
<path d="M16.1 51.1H14.7V52.5H16.1V51.1Z" fill="white"/>
<path d="M16.1 52.5H14.7V53.9H16.1V52.5Z" fill="white"/>
<path d="M16.1 55.3H14.7V56.7H16.1V55.3Z" fill="white"/>
<path d="M16.1 58.1H14.7V59.5H16.1V58.1Z" fill="white"/>
<path d="M16.1 59.5H14.7V60.9H16.1V59.5Z" fill="white"/>
<path d="M16.1 62.3H14.7V63.7H16.1V62.3Z" fill="white"/>
<path d="M17.5 4.89999H16.1V6.29999H17.5V4.89999Z" fill="white"/>
<path d="M17.5 10.5H16.1V11.9H17.5V10.5Z" fill="white"/>
<path d="M17.5 13.3H16.1V14.7H17.5V13.3Z" fill="white"/>
<path d="M17.5 16.1H16.1V17.5H17.5V16.1Z" fill="white"/>
<path d="M17.5 18.9H16.1V20.3H17.5V18.9Z" fill="white"/>
<path d="M17.5 20.3H16.1V21.7H17.5V20.3Z" fill="white"/>
<path d="M17.5 23.1H16.1V24.5H17.5V23.1Z" fill="white"/>
<path d="M17.5 27.3H16.1V28.7H17.5V27.3Z" fill="white"/>
<path d="M17.5 28.7H16.1V30.1H17.5V28.7Z" fill="white"/>
<path d="M17.5 31.5H16.1V32.9H17.5V31.5Z" fill="white"/>
<path d="M17.5 34.3H16.1V35.7H17.5V34.3Z" fill="white"/>
<path d="M17.5 35.7H16.1V37.1H17.5V35.7Z" fill="white"/>
<path d="M17.5 37.1H16.1V38.5H17.5V37.1Z" fill="white"/>
<path d="M17.5 39.9H16.1V41.3H17.5V39.9Z" fill="white"/>
<path d="M17.5 41.3H16.1V42.7H17.5V41.3Z" fill="white"/>
<path d="M17.5 45.5H16.1V46.9H17.5V45.5Z" fill="white"/>
<path d="M17.5 53.9H16.1V55.3H17.5V53.9Z" fill="white"/>
<path d="M17.5 56.7H16.1V58.1H17.5V56.7Z" fill="white"/>
<path d="M17.5 63.7H16.1V65.1H17.5V63.7Z" fill="white"/>
<path d="M18.9 4.89999H17.5V6.29999H18.9V4.89999Z" fill="white"/>
<path d="M18.9 9.10001H17.5V10.5H18.9V9.10001Z" fill="white"/>
<path d="M18.9 11.9H17.5V13.3H18.9V11.9Z" fill="white"/>
<path d="M18.9 13.3H17.5V14.7H18.9V13.3Z" fill="white"/>
<path d="M18.9 21.7H17.5V23.1H18.9V21.7Z" fill="white"/>
<path d="M18.9 23.1H17.5V24.5H18.9V23.1Z" fill="white"/>
<path d="M18.9 25.9H17.5V27.3H18.9V25.9Z" fill="white"/>
<path d="M18.9 27.3H17.5V28.7H18.9V27.3Z" fill="white"/>
<path d="M18.9 34.3H17.5V35.7H18.9V34.3Z" fill="white"/>
<path d="M18.9 35.7H17.5V37.1H18.9V35.7Z" fill="white"/>
<path d="M18.9 39.9H17.5V41.3H18.9V39.9Z" fill="white"/>
<path d="M18.9 41.3H17.5V42.7H18.9V41.3Z" fill="white"/>
<path d="M18.9 42.7H17.5V44.1H18.9V42.7Z" fill="white"/>
<path d="M18.9 45.5H17.5V46.9H18.9V45.5Z" fill="white"/>
<path d="M18.9 46.9H17.5V48.3H18.9V46.9Z" fill="white"/>
<path d="M18.9 48.3H17.5V49.7H18.9V48.3Z" fill="white"/>
<path d="M18.9 55.3H17.5V56.7H18.9V55.3Z" fill="white"/>
<path d="M18.9 56.7H17.5V58.1H18.9V56.7Z" fill="white"/>
<path d="M18.9 59.5H17.5V60.9H18.9V59.5Z" fill="white"/>
<path d="M18.9 62.3H17.5V63.7H18.9V62.3Z" fill="white"/>
<path d="M18.9 63.7H17.5V65.1H18.9V63.7Z" fill="white"/>
<path d="M20.3 4.89999H18.9V6.29999H20.3V4.89999Z" fill="white"/>
<path d="M20.3 9.10001H18.9V10.5H20.3V9.10001Z" fill="white"/>
<path d="M20.3 13.3H18.9V14.7H20.3V13.3Z" fill="white"/>
<path d="M20.3 21.7H18.9V23.1H20.3V21.7Z" fill="white"/>
<path d="M20.3 25.9H18.9V27.3H20.3V25.9Z" fill="white"/>
<path d="M20.3 30.1H18.9V31.5H20.3V30.1Z" fill="white"/>
<path d="M20.3 35.7H18.9V37.1H20.3V35.7Z" fill="white"/>
<path d="M20.3 38.5H18.9V39.9H20.3V38.5Z" fill="white"/>
<path d="M20.3 39.9H18.9V41.3H20.3V39.9Z" fill="white"/>
<path d="M20.3 41.3H18.9V42.7H20.3V41.3Z" fill="white"/>
<path d="M20.3 44.1H18.9V45.5H20.3V44.1Z" fill="white"/>
<path d="M20.3 46.9H18.9V48.3H20.3V46.9Z" fill="white"/>
<path d="M20.3 48.3H18.9V49.7H20.3V48.3Z" fill="white"/>
<path d="M20.3 49.7H18.9V51.1H20.3V49.7Z" fill="white"/>
<path d="M20.3 52.5H18.9V53.9H20.3V52.5Z" fill="white"/>
<path d="M20.3 55.3H18.9V56.7H20.3V55.3Z" fill="white"/>
<path d="M20.3 56.7H18.9V58.1H20.3V56.7Z" fill="white"/>
<path d="M20.3 58.1H18.9V59.5H20.3V58.1Z" fill="white"/>
<path d="M20.3 60.9H18.9V62.3H20.3V60.9Z" fill="white"/>
<path d="M21.7 6.29999H20.3V7.69999H21.7V6.29999Z" fill="white"/>
<path d="M21.7 7.70001H20.3V9.10001H21.7V7.70001Z" fill="white"/>
<path d="M21.7 11.9H20.3V13.3H21.7V11.9Z" fill="white"/>
<path d="M21.7 20.3H20.3V21.7H21.7V20.3Z" fill="white"/>
<path d="M21.7 21.7H20.3V23.1H21.7V21.7Z" fill="white"/>
<path d="M21.7 24.5H20.3V25.9H21.7V24.5Z" fill="white"/>
<path d="M21.7 25.9H20.3V27.3H21.7V25.9Z" fill="white"/>
<path d="M21.7 30.1H20.3V31.5H21.7V30.1Z" fill="white"/>
<path d="M21.7 32.9H20.3V34.3H21.7V32.9Z" fill="white"/>
<path d="M21.7 34.3H20.3V35.7H21.7V34.3Z" fill="white"/>
<path d="M21.7 35.7H20.3V37.1H21.7V35.7Z" fill="white"/>
<path d="M21.7 41.3H20.3V42.7H21.7V41.3Z" fill="white"/>
<path d="M21.7 45.5H20.3V46.9H21.7V45.5Z" fill="white"/>
<path d="M21.7 48.3H20.3V49.7H21.7V48.3Z" fill="white"/>
<path d="M21.7 49.7H20.3V51.1H21.7V49.7Z" fill="white"/>
<path d="M21.7 58.1H20.3V59.5H21.7V58.1Z" fill="white"/>
<path d="M21.7 60.9H20.3V62.3H21.7V60.9Z" fill="white"/>
<path d="M23.1 3.5H21.7V4.9H23.1V3.5Z" fill="white"/>
<path d="M23.1 7.70001H21.7V9.10001H23.1V7.70001Z" fill="white"/>
<path d="M23.1 10.5H21.7V11.9H23.1V10.5Z" fill="white"/>
<path d="M23.1 13.3H21.7V14.7H23.1V13.3Z" fill="white"/>
<path d="M23.1 14.7H21.7V16.1H23.1V14.7Z" fill="white"/>
<path d="M23.1 20.3H21.7V21.7H23.1V20.3Z" fill="white"/>
<path d="M23.1 21.7H21.7V23.1H23.1V21.7Z" fill="white"/>
<path d="M23.1 23.1H21.7V24.5H23.1V23.1Z" fill="white"/>
<path d="M23.1 24.5H21.7V25.9H23.1V24.5Z" fill="white"/>
<path d="M23.1 25.9H21.7V27.3H23.1V25.9Z" fill="white"/>
<path d="M23.1 27.3H21.7V28.7H23.1V27.3Z" fill="white"/>
<path d="M23.1 28.7H21.7V30.1H23.1V28.7Z" fill="white"/>
<path d="M23.1 30.1H21.7V31.5H23.1V30.1Z" fill="white"/>
<path d="M23.1 34.3H21.7V35.7H23.1V34.3Z" fill="white"/>
<path d="M23.1 35.7H21.7V37.1H23.1V35.7Z" fill="white"/>
<path d="M23.1 37.1H21.7V38.5H23.1V37.1Z" fill="white"/>
<path d="M23.1 39.9H21.7V41.3H23.1V39.9Z" fill="white"/>
<path d="M23.1 42.7H21.7V44.1H23.1V42.7Z" fill="white"/>
<path d="M23.1 44.1H21.7V45.5H23.1V44.1Z" fill="white"/>
<path d="M23.1 45.5H21.7V46.9H23.1V45.5Z" fill="white"/>
<path d="M23.1 46.9H21.7V48.3H23.1V46.9Z" fill="white"/>
<path d="M23.1 49.7H21.7V51.1H23.1V49.7Z" fill="white"/>
<path d="M23.1 52.5H21.7V53.9H23.1V52.5Z" fill="white"/>
<path d="M23.1 53.9H21.7V55.3H23.1V53.9Z" fill="white"/>
<path d="M23.1 56.7H21.7V58.1H23.1V56.7Z" fill="white"/>
<path d="M23.1 58.1H21.7V59.5H23.1V58.1Z" fill="white"/>
<path d="M23.1 60.9H21.7V62.3H23.1V60.9Z" fill="white"/>
<path d="M23.1 62.3H21.7V63.7H23.1V62.3Z" fill="white"/>
<path d="M23.1 63.7H21.7V65.1H23.1V63.7Z" fill="white"/>
<path d="M24.5 4.89999H23.1V6.29999H24.5V4.89999Z" fill="white"/>
<path d="M24.5 7.70001H23.1V9.10001H24.5V7.70001Z" fill="white"/>
<path d="M24.5 9.10001H23.1V10.5H24.5V9.10001Z" fill="white"/>
<path d="M24.5 10.5H23.1V11.9H24.5V10.5Z" fill="white"/>
<path d="M24.5 11.9H23.1V13.3H24.5V11.9Z" fill="white"/>
<path d="M24.5 13.3H23.1V14.7H24.5V13.3Z" fill="white"/>
<path d="M24.5 14.7H23.1V16.1H24.5V14.7Z" fill="white"/>
<path d="M24.5 16.1H23.1V17.5H24.5V16.1Z" fill="white"/>
<path d="M24.5 17.5H23.1V18.9H24.5V17.5Z" fill="white"/>
<path d="M24.5 18.9H23.1V20.3H24.5V18.9Z" fill="white"/>
<path d="M24.5 21.7H23.1V23.1H24.5V21.7Z" fill="white"/>
<path d="M24.5 24.5H23.1V25.9H24.5V24.5Z" fill="white"/>
<path d="M24.5 25.9H23.1V27.3H24.5V25.9Z" fill="white"/>
<path d="M24.5 31.5H23.1V32.9H24.5V31.5Z" fill="white"/>
<path d="M24.5 35.7H23.1V37.1H24.5V35.7Z" fill="white"/>
<path d="M24.5 38.5H23.1V39.9H24.5V38.5Z" fill="white"/>
<path d="M24.5 42.7H23.1V44.1H24.5V42.7Z" fill="white"/>
<path d="M24.5 44.1H23.1V45.5H24.5V44.1Z" fill="white"/>
<path d="M24.5 45.5H23.1V46.9H24.5V45.5Z" fill="white"/>
<path d="M24.5 48.3H23.1V49.7H24.5V48.3Z" fill="white"/>
<path d="M24.5 52.5H23.1V53.9H24.5V52.5Z" fill="white"/>
<path d="M24.5 56.7H23.1V58.1H24.5V56.7Z" fill="white"/>
<path d="M24.5 60.9H23.1V62.3H24.5V60.9Z" fill="white"/>
<path d="M24.5 63.7H23.1V65.1H24.5V63.7Z" fill="white"/>
<path d="M25.9 7.70001H24.5V9.10001H25.9V7.70001Z" fill="white"/>
<path d="M25.9 13.3H24.5V14.7H25.9V13.3Z" fill="white"/>
<path d="M25.9 17.5H24.5V18.9H25.9V17.5Z" fill="white"/>
<path d="M25.9 21.7H24.5V23.1H25.9V21.7Z" fill="white"/>
<path d="M25.9 24.5H24.5V25.9H25.9V24.5Z" fill="white"/>
<path d="M25.9 25.9H24.5V27.3H25.9V25.9Z" fill="white"/>
<path d="M25.9 27.3H24.5V28.7H25.9V27.3Z" fill="white"/>
<path d="M25.9 28.7H24.5V30.1H25.9V28.7Z" fill="white"/>
<path d="M25.9 31.5H24.5V32.9H25.9V31.5Z" fill="white"/>
<path d="M25.9 34.3H24.5V35.7H25.9V34.3Z" fill="white"/>
<path d="M25.9 37.1H24.5V38.5H25.9V37.1Z" fill="white"/>
<path d="M25.9 38.5H24.5V39.9H25.9V38.5Z" fill="white"/>
<path d="M25.9 39.9H24.5V41.3H25.9V39.9Z" fill="white"/>
<path d="M25.9 41.3H24.5V42.7H25.9V41.3Z" fill="white"/>
<path d="M25.9 46.9H24.5V48.3H25.9V46.9Z" fill="white"/>
<path d="M25.9 49.7H24.5V51.1H25.9V49.7Z" fill="white"/>
<path d="M25.9 53.9H24.5V55.3H25.9V53.9Z" fill="white"/>
<path d="M25.9 55.3H24.5V56.7H25.9V55.3Z" fill="white"/>
<path d="M25.9 65.1H24.5V66.5H25.9V65.1Z" fill="white"/>
<path d="M27.3 3.5H25.9V4.9H27.3V3.5Z" fill="white"/>
<path d="M27.3 4.89999H25.9V6.29999H27.3V4.89999Z" fill="white"/>
<path d="M27.3 7.70001H25.9V9.10001H27.3V7.70001Z" fill="white"/>
<path d="M27.3 9.10001H25.9V10.5H27.3V9.10001Z" fill="white"/>
<path d="M27.3 11.9H25.9V13.3H27.3V11.9Z" fill="white"/>
<path d="M27.3 16.1H25.9V17.5H27.3V16.1Z" fill="white"/>
<path d="M27.3 18.9H25.9V20.3H27.3V18.9Z" fill="white"/>
<path d="M27.3 20.3H25.9V21.7H27.3V20.3Z" fill="white"/>
<path d="M27.3 21.7H25.9V23.1H27.3V21.7Z" fill="white"/>
<path d="M27.3 23.1H25.9V24.5H27.3V23.1Z" fill="white"/>
<path d="M27.3 24.5H25.9V25.9H27.3V24.5Z" fill="white"/>
<path d="M27.3 31.5H25.9V32.9H27.3V31.5Z" fill="white"/>
<path d="M27.3 37.1H25.9V38.5H27.3V37.1Z" fill="white"/>
<path d="M27.3 41.3H25.9V42.7H27.3V41.3Z" fill="white"/>
<path d="M27.3 48.3H25.9V49.7H27.3V48.3Z" fill="white"/>
<path d="M27.3 51.1H25.9V52.5H27.3V51.1Z" fill="white"/>
<path d="M27.3 52.5H25.9V53.9H27.3V52.5Z" fill="white"/>
<path d="M27.3 55.3H25.9V56.7H27.3V55.3Z" fill="white"/>
<path d="M27.3 56.7H25.9V58.1H27.3V56.7Z" fill="white"/>
<path d="M27.3 60.9H25.9V62.3H27.3V60.9Z" fill="white"/>
<path d="M28.7 4.89999H27.3V6.29999H28.7V4.89999Z" fill="white"/>
<path d="M28.7 6.29999H27.3V7.69999H28.7V6.29999Z" fill="white"/>
<path d="M28.7 7.70001H27.3V9.10001H28.7V7.70001Z" fill="white"/>
<path d="M28.7 9.10001H27.3V10.5H28.7V9.10001Z" fill="white"/>
<path d="M28.7 10.5H27.3V11.9H28.7V10.5Z" fill="white"/>
<path d="M28.7 13.3H27.3V14.7H28.7V13.3Z" fill="white"/>
<path d="M28.7 18.9H27.3V20.3H28.7V18.9Z" fill="white"/>
<path d="M28.7 21.7H27.3V23.1H28.7V21.7Z" fill="white"/>
<path d="M28.7 23.1H27.3V24.5H28.7V23.1Z" fill="white"/>
<path d="M28.7 24.5H27.3V25.9H28.7V24.5Z" fill="white"/>
<path d="M28.7 27.3H27.3V28.7H28.7V27.3Z" fill="white"/>
<path d="M28.7 28.7H27.3V30.1H28.7V28.7Z" fill="white"/>
<path d="M28.7 30.1H27.3V31.5H28.7V30.1Z" fill="white"/>
<path d="M28.7 35.7H27.3V37.1H28.7V35.7Z" fill="white"/>
<path d="M28.7 37.1H27.3V38.5H28.7V37.1Z" fill="white"/>
<path d="M28.7 39.9H27.3V41.3H28.7V39.9Z" fill="white"/>
<path d="M28.7 42.7H27.3V44.1H28.7V42.7Z" fill="white"/>
<path d="M28.7 44.1H27.3V45.5H28.7V44.1Z" fill="white"/>
<path d="M28.7 45.5H27.3V46.9H28.7V45.5Z" fill="white"/>
<path d="M28.7 53.9H27.3V55.3H28.7V53.9Z" fill="white"/>
<path d="M28.7 55.3H27.3V56.7H28.7V55.3Z" fill="white"/>
<path d="M28.7 56.7H27.3V58.1H28.7V56.7Z" fill="white"/>
<path d="M28.7 58.1H27.3V59.5H28.7V58.1Z" fill="white"/>
<path d="M28.7 62.3H27.3V63.7H28.7V62.3Z" fill="white"/>
<path d="M28.7 63.7H27.3V65.1H28.7V63.7Z" fill="white"/>
<path d="M30.1 3.5H28.7V4.9H30.1V3.5Z" fill="white"/>
<path d="M30.1 4.89999H28.7V6.29999H30.1V4.89999Z" fill="white"/>
<path d="M30.1 6.29999H28.7V7.69999H30.1V6.29999Z" fill="white"/>
<path d="M30.1 11.9H28.7V13.3H30.1V11.9Z" fill="white"/>
<path d="M30.1 16.1H28.7V17.5H30.1V16.1Z" fill="white"/>
<path d="M30.1 20.3H28.7V21.7H30.1V20.3Z" fill="white"/>
<path d="M30.1 23.1H28.7V24.5H30.1V23.1Z" fill="white"/>
<path d="M30.1 28.7H28.7V30.1H30.1V28.7Z" fill="white"/>
<path d="M30.1 30.1H28.7V31.5H30.1V30.1Z" fill="white"/>
<path d="M30.1 31.5H28.7V32.9H30.1V31.5Z" fill="white"/>
<path d="M30.1 34.3H28.7V35.7H30.1V34.3Z" fill="white"/>
<path d="M30.1 35.7H28.7V37.1H30.1V35.7Z" fill="white"/>
<path d="M30.1 38.5H28.7V39.9H30.1V38.5Z" fill="white"/>
<path d="M30.1 39.9H28.7V41.3H30.1V39.9Z" fill="white"/>
<path d="M30.1 42.7H28.7V44.1H30.1V42.7Z" fill="white"/>
<path d="M30.1 44.1H28.7V45.5H30.1V44.1Z" fill="white"/>
<path d="M30.1 45.5H28.7V46.9H30.1V45.5Z" fill="white"/>
<path d="M30.1 49.7H28.7V51.1H30.1V49.7Z" fill="white"/>
<path d="M30.1 53.9H28.7V55.3H30.1V53.9Z" fill="white"/>
<path d="M30.1 56.7H28.7V58.1H30.1V56.7Z" fill="white"/>
<path d="M30.1 58.1H28.7V59.5H30.1V58.1Z" fill="white"/>
<path d="M30.1 62.3H28.7V63.7H30.1V62.3Z" fill="white"/>
<path d="M30.1 63.7H28.7V65.1H30.1V63.7Z" fill="white"/>
<path d="M31.5 3.5H30.1V4.9H31.5V3.5Z" fill="white"/>
<path d="M31.5 6.29999H30.1V7.69999H31.5V6.29999Z" fill="white"/>
<path d="M31.5 10.5H30.1V11.9H31.5V10.5Z" fill="white"/>
<path d="M31.5 13.3H30.1V14.7H31.5V13.3Z" fill="white"/>
<path d="M31.5 14.7H30.1V16.1H31.5V14.7Z" fill="white"/>
<path d="M31.5 21.7H30.1V23.1H31.5V21.7Z" fill="white"/>
<path d="M31.5 23.1H30.1V24.5H31.5V23.1Z" fill="white"/>
<path d="M31.5 24.5H30.1V25.9H31.5V24.5Z" fill="white"/>
<path d="M31.5 31.5H30.1V32.9H31.5V31.5Z" fill="white"/>
<path d="M31.5 34.3H30.1V35.7H31.5V34.3Z" fill="white"/>
<path d="M31.5 35.7H30.1V37.1H31.5V35.7Z" fill="white"/>
<path d="M31.5 37.1H30.1V38.5H31.5V37.1Z" fill="white"/>
<path d="M31.5 38.5H30.1V39.9H31.5V38.5Z" fill="white"/>
<path d="M31.5 39.9H30.1V41.3H31.5V39.9Z" fill="white"/>
<path d="M31.5 41.3H30.1V42.7H31.5V41.3Z" fill="white"/>
<path d="M31.5 45.5H30.1V46.9H31.5V45.5Z" fill="white"/>
<path d="M31.5 48.3H30.1V49.7H31.5V48.3Z" fill="white"/>
<path d="M31.5 51.1H30.1V52.5H31.5V51.1Z" fill="white"/>
<path d="M31.5 52.5H30.1V53.9H31.5V52.5Z" fill="white"/>
<path d="M31.5 55.3H30.1V56.7H31.5V55.3Z" fill="white"/>
<path d="M31.5 59.5H30.1V60.9H31.5V59.5Z" fill="white"/>
<path d="M31.5 63.7H30.1V65.1H31.5V63.7Z" fill="white"/>
<path d="M32.9 3.5H31.5V4.9H32.9V3.5Z" fill="white"/>
<path d="M32.9 4.89999H31.5V6.29999H32.9V4.89999Z" fill="white"/>
<path d="M32.9 9.10001H31.5V10.5H32.9V9.10001Z" fill="white"/>
<path d="M32.9 10.5H31.5V11.9H32.9V10.5Z" fill="white"/>
<path d="M32.9 11.9H31.5V13.3H32.9V11.9Z" fill="white"/>
<path d="M32.9 13.3H31.5V14.7H32.9V13.3Z" fill="white"/>
<path d="M32.9 14.7H31.5V16.1H32.9V14.7Z" fill="white"/>
<path d="M32.9 16.1H31.5V17.5H32.9V16.1Z" fill="white"/>
<path d="M32.9 20.3H31.5V21.7H32.9V20.3Z" fill="white"/>
<path d="M32.9 21.7H31.5V23.1H32.9V21.7Z" fill="white"/>
<path d="M32.9 28.7H31.5V30.1H32.9V28.7Z" fill="white"/>
<path d="M32.9 30.1H31.5V31.5H32.9V30.1Z" fill="white"/>
<path d="M32.9 31.5H31.5V32.9H32.9V31.5Z" fill="white"/>
<path d="M32.9 32.9H31.5V34.3H32.9V32.9Z" fill="white"/>
<path d="M32.9 34.3H31.5V35.7H32.9V34.3Z" fill="white"/>
<path d="M32.9 35.7H31.5V37.1H32.9V35.7Z" fill="white"/>
<path d="M32.9 37.1H31.5V38.5H32.9V37.1Z" fill="white"/>
<path d="M32.9 38.5H31.5V39.9H32.9V38.5Z" fill="white"/>
<path d="M32.9 41.3H31.5V42.7H32.9V41.3Z" fill="white"/>
<path d="M32.9 45.5H31.5V46.9H32.9V45.5Z" fill="white"/>
<path d="M32.9 48.3H31.5V49.7H32.9V48.3Z" fill="white"/>
<path d="M32.9 49.7H31.5V51.1H32.9V49.7Z" fill="white"/>
<path d="M32.9 53.9H31.5V55.3H32.9V53.9Z" fill="white"/>
<path d="M32.9 55.3H31.5V56.7H32.9V55.3Z" fill="white"/>
<path d="M32.9 56.7H31.5V58.1H32.9V56.7Z" fill="white"/>
<path d="M32.9 58.1H31.5V59.5H32.9V58.1Z" fill="white"/>
<path d="M32.9 59.5H31.5V60.9H32.9V59.5Z" fill="white"/>
<path d="M32.9 60.9H31.5V62.3H32.9V60.9Z" fill="white"/>
<path d="M32.9 65.1H31.5V66.5H32.9V65.1Z" fill="white"/>
<path d="M34.3 3.5H32.9V4.9H34.3V3.5Z" fill="white"/>
<path d="M34.3 4.89999H32.9V6.29999H34.3V4.89999Z" fill="white"/>
<path d="M34.3 6.29999H32.9V7.69999H34.3V6.29999Z" fill="white"/>
<path d="M34.3 9.10001H32.9V10.5H34.3V9.10001Z" fill="white"/>
<path d="M34.3 14.7H32.9V16.1H34.3V14.7Z" fill="white"/>
<path d="M34.3 16.1H32.9V17.5H34.3V16.1Z" fill="white"/>
<path d="M34.3 18.9H32.9V20.3H34.3V18.9Z" fill="white"/>
<path d="M34.3 20.3H32.9V21.7H34.3V20.3Z" fill="white"/>
<path d="M34.3 23.1H32.9V24.5H34.3V23.1Z" fill="white"/>
<path d="M34.3 24.5H32.9V25.9H34.3V24.5Z" fill="white"/>
<path d="M34.3 25.9H32.9V27.3H34.3V25.9Z" fill="white"/>
<path d="M34.3 28.7H32.9V30.1H34.3V28.7Z" fill="white"/>
<path d="M34.3 30.1H32.9V31.5H34.3V30.1Z" fill="white"/>
<path d="M34.3 31.5H32.9V32.9H34.3V31.5Z" fill="white"/>
<path d="M34.3 37.1H32.9V38.5H34.3V37.1Z" fill="white"/>
<path d="M34.3 42.7H32.9V44.1H34.3V42.7Z" fill="white"/>
<path d="M34.3 44.1H32.9V45.5H34.3V44.1Z" fill="white"/>
<path d="M34.3 45.5H32.9V46.9H34.3V45.5Z" fill="white"/>
<path d="M34.3 52.5H32.9V53.9H34.3V52.5Z" fill="white"/>
<path d="M34.3 53.9H32.9V55.3H34.3V53.9Z" fill="white"/>
<path d="M34.3 59.5H32.9V60.9H34.3V59.5Z" fill="white"/>
<path d="M35.7 4.89999H34.3V6.29999H35.7V4.89999Z" fill="white"/>
<path d="M35.7 6.29999H34.3V7.69999H35.7V6.29999Z" fill="white"/>
<path d="M35.7 7.70001H34.3V9.10001H35.7V7.70001Z" fill="white"/>
<path d="M35.7 9.10001H34.3V10.5H35.7V9.10001Z" fill="white"/>
<path d="M35.7 11.9H34.3V13.3H35.7V11.9Z" fill="white"/>
<path d="M35.7 14.7H34.3V16.1H35.7V14.7Z" fill="white"/>
<path d="M35.7 17.5H34.3V18.9H35.7V17.5Z" fill="white"/>
<path d="M35.7 18.9H34.3V20.3H35.7V18.9Z" fill="white"/>
<path d="M35.7 21.7H34.3V23.1H35.7V21.7Z" fill="white"/>
<path d="M35.7 23.1H34.3V24.5H35.7V23.1Z" fill="white"/>
<path d="M35.7 31.5H34.3V32.9H35.7V31.5Z" fill="white"/>
<path d="M35.7 34.3H34.3V35.7H35.7V34.3Z" fill="white"/>
<path d="M35.7 37.1H34.3V38.5H35.7V37.1Z" fill="white"/>
<path d="M35.7 44.1H34.3V45.5H35.7V44.1Z" fill="white"/>
<path d="M35.7 45.5H34.3V46.9H35.7V45.5Z" fill="white"/>
<path d="M35.7 49.7H34.3V51.1H35.7V49.7Z" fill="white"/>
<path d="M35.7 53.9H34.3V55.3H35.7V53.9Z" fill="white"/>
<path d="M35.7 56.7H34.3V58.1H35.7V56.7Z" fill="white"/>
<path d="M35.7 59.5H34.3V60.9H35.7V59.5Z" fill="white"/>
<path d="M35.7 60.9H34.3V62.3H35.7V60.9Z" fill="white"/>
<path d="M35.7 63.7H34.3V65.1H35.7V63.7Z" fill="white"/>
<path d="M37.1 4.89999H35.7V6.29999H37.1V4.89999Z" fill="white"/>
<path d="M37.1 6.29999H35.7V7.69999H37.1V6.29999Z" fill="white"/>
<path d="M37.1 9.10001H35.7V10.5H37.1V9.10001Z" fill="white"/>
<path d="M37.1 14.7H35.7V16.1H37.1V14.7Z" fill="white"/>
<path d="M37.1 16.1H35.7V17.5H37.1V16.1Z" fill="white"/>
<path d="M37.1 20.3H35.7V21.7H37.1V20.3Z" fill="white"/>
<path d="M37.1 21.7H35.7V23.1H37.1V21.7Z" fill="white"/>
<path d="M37.1 23.1H35.7V24.5H37.1V23.1Z" fill="white"/>
<path d="M37.1 25.9H35.7V27.3H37.1V25.9Z" fill="white"/>
<path d="M37.1 27.3H35.7V28.7H37.1V27.3Z" fill="white"/>
<path d="M37.1 31.5H35.7V32.9H37.1V31.5Z" fill="white"/>
<path d="M37.1 37.1H35.7V38.5H37.1V37.1Z" fill="white"/>
<path d="M37.1 38.5H35.7V39.9H37.1V38.5Z" fill="white"/>
<path d="M37.1 44.1H35.7V45.5H37.1V44.1Z" fill="white"/>
<path d="M37.1 48.3H35.7V49.7H37.1V48.3Z" fill="white"/>
<path d="M37.1 49.7H35.7V51.1H37.1V49.7Z" fill="white"/>
<path d="M37.1 51.1H35.7V52.5H37.1V51.1Z" fill="white"/>
<path d="M37.1 52.5H35.7V53.9H37.1V52.5Z" fill="white"/>
<path d="M37.1 53.9H35.7V55.3H37.1V53.9Z" fill="white"/>
<path d="M37.1 59.5H35.7V60.9H37.1V59.5Z" fill="white"/>
<path d="M37.1 63.7H35.7V65.1H37.1V63.7Z" fill="white"/>
<path d="M38.5 3.5H37.1V4.9H38.5V3.5Z" fill="white"/>
<path d="M38.5 9.10001H37.1V10.5H38.5V9.10001Z" fill="white"/>
<path d="M38.5 10.5H37.1V11.9H38.5V10.5Z" fill="white"/>
<path d="M38.5 11.9H37.1V13.3H38.5V11.9Z" fill="white"/>
<path d="M38.5 13.3H37.1V14.7H38.5V13.3Z" fill="white"/>
<path d="M38.5 14.7H37.1V16.1H38.5V14.7Z" fill="white"/>
<path d="M38.5 17.5H37.1V18.9H38.5V17.5Z" fill="white"/>
<path d="M38.5 20.3H37.1V21.7H38.5V20.3Z" fill="white"/>
<path d="M38.5 21.7H37.1V23.1H38.5V21.7Z" fill="white"/>
<path d="M38.5 28.7H37.1V30.1H38.5V28.7Z" fill="white"/>
<path d="M38.5 30.1H37.1V31.5H38.5V30.1Z" fill="white"/>
<path d="M38.5 31.5H37.1V32.9H38.5V31.5Z" fill="white"/>
<path d="M38.5 32.9H37.1V34.3H38.5V32.9Z" fill="white"/>
<path d="M38.5 34.3H37.1V35.7H38.5V34.3Z" fill="white"/>
<path d="M38.5 35.7H37.1V37.1H38.5V35.7Z" fill="white"/>
<path d="M38.5 37.1H37.1V38.5H38.5V37.1Z" fill="white"/>
<path d="M38.5 38.5H37.1V39.9H38.5V38.5Z" fill="white"/>
<path d="M38.5 41.3H37.1V42.7H38.5V41.3Z" fill="white"/>
<path d="M38.5 48.3H37.1V49.7H38.5V48.3Z" fill="white"/>
<path d="M38.5 53.9H37.1V55.3H38.5V53.9Z" fill="white"/>
<path d="M38.5 55.3H37.1V56.7H38.5V55.3Z" fill="white"/>
<path d="M38.5 56.7H37.1V58.1H38.5V56.7Z" fill="white"/>
<path d="M38.5 58.1H37.1V59.5H38.5V58.1Z" fill="white"/>
<path d="M38.5 59.5H37.1V60.9H38.5V59.5Z" fill="white"/>
<path d="M38.5 60.9H37.1V62.3H38.5V60.9Z" fill="white"/>
<path d="M38.5 65.1H37.1V66.5H38.5V65.1Z" fill="white"/>
<path d="M39.9 3.5H38.5V4.9H39.9V3.5Z" fill="white"/>
<path d="M39.9 9.10001H38.5V10.5H39.9V9.10001Z" fill="white"/>
<path d="M39.9 16.1H38.5V17.5H39.9V16.1Z" fill="white"/>
<path d="M39.9 18.9H38.5V20.3H39.9V18.9Z" fill="white"/>
<path d="M39.9 20.3H38.5V21.7H39.9V20.3Z" fill="white"/>
<path d="M39.9 21.7H38.5V23.1H39.9V21.7Z" fill="white"/>
<path d="M39.9 23.1H38.5V24.5H39.9V23.1Z" fill="white"/>
<path d="M39.9 25.9H38.5V27.3H39.9V25.9Z" fill="white"/>
<path d="M39.9 27.3H38.5V28.7H39.9V27.3Z" fill="white"/>
<path d="M39.9 30.1H38.5V31.5H39.9V30.1Z" fill="white"/>
<path d="M39.9 31.5H38.5V32.9H39.9V31.5Z" fill="white"/>
<path d="M39.9 32.9H38.5V34.3H39.9V32.9Z" fill="white"/>
<path d="M39.9 34.3H38.5V35.7H39.9V34.3Z" fill="white"/>
<path d="M39.9 37.1H38.5V38.5H39.9V37.1Z" fill="white"/>
<path d="M39.9 38.5H38.5V39.9H39.9V38.5Z" fill="white"/>
<path d="M39.9 39.9H38.5V41.3H39.9V39.9Z" fill="white"/>
<path d="M39.9 41.3H38.5V42.7H39.9V41.3Z" fill="white"/>
<path d="M39.9 44.1H38.5V45.5H39.9V44.1Z" fill="white"/>
<path d="M39.9 45.5H38.5V46.9H39.9V45.5Z" fill="white"/>
<path d="M39.9 49.7H38.5V51.1H39.9V49.7Z" fill="white"/>
<path d="M39.9 52.5H38.5V53.9H39.9V52.5Z" fill="white"/>
<path d="M39.9 53.9H38.5V55.3H39.9V53.9Z" fill="white"/>
<path d="M39.9 55.3H38.5V56.7H39.9V55.3Z" fill="white"/>
<path d="M39.9 58.1H38.5V59.5H39.9V58.1Z" fill="white"/>
<path d="M39.9 60.9H38.5V62.3H39.9V60.9Z" fill="white"/>
<path d="M39.9 62.3H38.5V63.7H39.9V62.3Z" fill="white"/>
<path d="M39.9 63.7H38.5V65.1H39.9V63.7Z" fill="white"/>
<path d="M41.3 3.5H39.9V4.9H41.3V3.5Z" fill="white"/>
<path d="M41.3 6.29999H39.9V7.69999H41.3V6.29999Z" fill="white"/>
<path d="M41.3 10.5H39.9V11.9H41.3V10.5Z" fill="white"/>
<path d="M41.3 11.9H39.9V13.3H41.3V11.9Z" fill="white"/>
<path d="M41.3 14.7H39.9V16.1H41.3V14.7Z" fill="white"/>
<path d="M41.3 17.5H39.9V18.9H41.3V17.5Z" fill="white"/>
<path d="M41.3 18.9H39.9V20.3H41.3V18.9Z" fill="white"/>
<path d="M41.3 23.1H39.9V24.5H41.3V23.1Z" fill="white"/>
<path d="M41.3 25.9H39.9V27.3H41.3V25.9Z" fill="white"/>
<path d="M41.3 27.3H39.9V28.7H41.3V27.3Z" fill="white"/>
<path d="M41.3 28.7H39.9V30.1H41.3V28.7Z" fill="white"/>
<path d="M41.3 32.9H39.9V34.3H41.3V32.9Z" fill="white"/>
<path d="M41.3 35.7H39.9V37.1H41.3V35.7Z" fill="white"/>
<path d="M41.3 37.1H39.9V38.5H41.3V37.1Z" fill="white"/>
<path d="M41.3 42.7H39.9V44.1H41.3V42.7Z" fill="white"/>
<path d="M41.3 44.1H39.9V45.5H41.3V44.1Z" fill="white"/>
<path d="M41.3 45.5H39.9V46.9H41.3V45.5Z" fill="white"/>
<path d="M41.3 46.9H39.9V48.3H41.3V46.9Z" fill="white"/>
<path d="M41.3 48.3H39.9V49.7H41.3V48.3Z" fill="white"/>
<path d="M41.3 49.7H39.9V51.1H41.3V49.7Z" fill="white"/>
<path d="M41.3 51.1H39.9V52.5H41.3V51.1Z" fill="white"/>
<path d="M41.3 52.5H39.9V53.9H41.3V52.5Z" fill="white"/>
<path d="M41.3 55.3H39.9V56.7H41.3V55.3Z" fill="white"/>
<path d="M41.3 58.1H39.9V59.5H41.3V58.1Z" fill="white"/>
<path d="M41.3 62.3H39.9V63.7H41.3V62.3Z" fill="white"/>
<path d="M41.3 63.7H39.9V65.1H41.3V63.7Z" fill="white"/>
<path d="M42.7 4.89999H41.3V6.29999H42.7V4.89999Z" fill="white"/>
<path d="M42.7 6.29999H41.3V7.69999H42.7V6.29999Z" fill="white"/>
<path d="M42.7 7.70001H41.3V9.10001H42.7V7.70001Z" fill="white"/>
<path d="M42.7 10.5H41.3V11.9H42.7V10.5Z" fill="white"/>
<path d="M42.7 14.7H41.3V16.1H42.7V14.7Z" fill="white"/>
<path d="M42.7 16.1H41.3V17.5H42.7V16.1Z" fill="white"/>
<path d="M42.7 18.9H41.3V20.3H42.7V18.9Z" fill="white"/>
<path d="M42.7 20.3H41.3V21.7H42.7V20.3Z" fill="white"/>
<path d="M42.7 21.7H41.3V23.1H42.7V21.7Z" fill="white"/>
<path d="M42.7 30.1H41.3V31.5H42.7V30.1Z" fill="white"/>
<path d="M42.7 34.3H41.3V35.7H42.7V34.3Z" fill="white"/>
<path d="M42.7 37.1H41.3V38.5H42.7V37.1Z" fill="white"/>
<path d="M42.7 41.3H41.3V42.7H42.7V41.3Z" fill="white"/>
<path d="M42.7 42.7H41.3V44.1H42.7V42.7Z" fill="white"/>
<path d="M42.7 45.5H41.3V46.9H42.7V45.5Z" fill="white"/>
<path d="M42.7 46.9H41.3V48.3H42.7V46.9Z" fill="white"/>
<path d="M42.7 49.7H41.3V51.1H42.7V49.7Z" fill="white"/>
<path d="M42.7 52.5H41.3V53.9H42.7V52.5Z" fill="white"/>
<path d="M42.7 53.9H41.3V55.3H42.7V53.9Z" fill="white"/>
<path d="M42.7 55.3H41.3V56.7H42.7V55.3Z" fill="white"/>
<path d="M42.7 56.7H41.3V58.1H42.7V56.7Z" fill="white"/>
<path d="M42.7 58.1H41.3V59.5H42.7V58.1Z" fill="white"/>
<path d="M42.7 65.1H41.3V66.5H42.7V65.1Z" fill="white"/>
<path d="M44.1 4.89999H42.7V6.29999H44.1V4.89999Z" fill="white"/>
<path d="M44.1 9.10001H42.7V10.5H44.1V9.10001Z" fill="white"/>
<path d="M44.1 11.9H42.7V13.3H44.1V11.9Z" fill="white"/>
<path d="M44.1 14.7H42.7V16.1H44.1V14.7Z" fill="white"/>
<path d="M44.1 16.1H42.7V17.5H44.1V16.1Z" fill="white"/>
<path d="M44.1 23.1H42.7V24.5H44.1V23.1Z" fill="white"/>
<path d="M44.1 24.5H42.7V25.9H44.1V24.5Z" fill="white"/>
<path d="M44.1 25.9H42.7V27.3H44.1V25.9Z" fill="white"/>
<path d="M44.1 28.7H42.7V30.1H44.1V28.7Z" fill="white"/>
<path d="M44.1 32.9H42.7V34.3H44.1V32.9Z" fill="white"/>
<path d="M44.1 39.9H42.7V41.3H44.1V39.9Z" fill="white"/>
<path d="M44.1 41.3H42.7V42.7H44.1V41.3Z" fill="white"/>
<path d="M44.1 44.1H42.7V45.5H44.1V44.1Z" fill="white"/>
<path d="M44.1 45.5H42.7V46.9H44.1V45.5Z" fill="white"/>
<path d="M44.1 48.3H42.7V49.7H44.1V48.3Z" fill="white"/>
<path d="M44.1 49.7H42.7V51.1H44.1V49.7Z" fill="white"/>
<path d="M44.1 51.1H42.7V52.5H44.1V51.1Z" fill="white"/>
<path d="M44.1 55.3H42.7V56.7H44.1V55.3Z" fill="white"/>
<path d="M44.1 56.7H42.7V58.1H44.1V56.7Z" fill="white"/>
<path d="M44.1 59.5H42.7V60.9H44.1V59.5Z" fill="white"/>
<path d="M44.1 65.1H42.7V66.5H44.1V65.1Z" fill="white"/>
<path d="M45.5 4.89999H44.1V6.29999H45.5V4.89999Z" fill="white"/>
<path d="M45.5 7.70001H44.1V9.10001H45.5V7.70001Z" fill="white"/>
<path d="M45.5 9.10001H44.1V10.5H45.5V9.10001Z" fill="white"/>
<path d="M45.5 10.5H44.1V11.9H45.5V10.5Z" fill="white"/>
<path d="M45.5 16.1H44.1V17.5H45.5V16.1Z" fill="white"/>
<path d="M45.5 17.5H44.1V18.9H45.5V17.5Z" fill="white"/>
<path d="M45.5 20.3H44.1V21.7H45.5V20.3Z" fill="white"/>
<path d="M45.5 21.7H44.1V23.1H45.5V21.7Z" fill="white"/>
<path d="M45.5 24.5H44.1V25.9H45.5V24.5Z" fill="white"/>
<path d="M45.5 30.1H44.1V31.5H45.5V30.1Z" fill="white"/>
<path d="M45.5 31.5H44.1V32.9H45.5V31.5Z" fill="white"/>
<path d="M45.5 32.9H44.1V34.3H45.5V32.9Z" fill="white"/>
<path d="M45.5 37.1H44.1V38.5H45.5V37.1Z" fill="white"/>
<path d="M45.5 42.7H44.1V44.1H45.5V42.7Z" fill="white"/>
<path d="M45.5 45.5H44.1V46.9H45.5V45.5Z" fill="white"/>
<path d="M45.5 48.3H44.1V49.7H45.5V48.3Z" fill="white"/>
<path d="M45.5 52.5H44.1V53.9H45.5V52.5Z" fill="white"/>
<path d="M45.5 56.7H44.1V58.1H45.5V56.7Z" fill="white"/>
<path d="M45.5 58.1H44.1V59.5H45.5V58.1Z" fill="white"/>
<path d="M45.5 60.9H44.1V62.3H45.5V60.9Z" fill="white"/>
<path d="M45.5 62.3H44.1V63.7H45.5V62.3Z" fill="white"/>
<path d="M45.5 63.7H44.1V65.1H45.5V63.7Z" fill="white"/>
<path d="M46.9 3.5H45.5V4.9H46.9V3.5Z" fill="white"/>
<path d="M46.9 9.10001H45.5V10.5H46.9V9.10001Z" fill="white"/>
<path d="M46.9 11.9H45.5V13.3H46.9V11.9Z" fill="white"/>
<path d="M46.9 13.3H45.5V14.7H46.9V13.3Z" fill="white"/>
<path d="M46.9 14.7H45.5V16.1H46.9V14.7Z" fill="white"/>
<path d="M46.9 16.1H45.5V17.5H46.9V16.1Z" fill="white"/>
<path d="M46.9 17.5H45.5V18.9H46.9V17.5Z" fill="white"/>
<path d="M46.9 18.9H45.5V20.3H46.9V18.9Z" fill="white"/>
<path d="M46.9 20.3H45.5V21.7H46.9V20.3Z" fill="white"/>
<path d="M46.9 24.5H45.5V25.9H46.9V24.5Z" fill="white"/>
<path d="M46.9 25.9H45.5V27.3H46.9V25.9Z" fill="white"/>
<path d="M46.9 30.1H45.5V31.5H46.9V30.1Z" fill="white"/>
<path d="M46.9 31.5H45.5V32.9H46.9V31.5Z" fill="white"/>
<path d="M46.9 32.9H45.5V34.3H46.9V32.9Z" fill="white"/>
<path d="M46.9 35.7H45.5V37.1H46.9V35.7Z" fill="white"/>
<path d="M46.9 37.1H45.5V38.5H46.9V37.1Z" fill="white"/>
<path d="M46.9 39.9H45.5V41.3H46.9V39.9Z" fill="white"/>
<path d="M46.9 42.7H45.5V44.1H46.9V42.7Z" fill="white"/>
<path d="M46.9 44.1H45.5V45.5H46.9V44.1Z" fill="white"/>
<path d="M46.9 45.5H45.5V46.9H46.9V45.5Z" fill="white"/>
<path d="M46.9 46.9H45.5V48.3H46.9V46.9Z" fill="white"/>
<path d="M46.9 49.7H45.5V51.1H46.9V49.7Z" fill="white"/>
<path d="M46.9 53.9H45.5V55.3H46.9V53.9Z" fill="white"/>
<path d="M46.9 55.3H45.5V56.7H46.9V55.3Z" fill="white"/>
<path d="M46.9 63.7H45.5V65.1H46.9V63.7Z" fill="white"/>
<path d="M48.3 3.5H46.9V4.9H48.3V3.5Z" fill="white"/>
<path d="M48.3 6.29999H46.9V7.69999H48.3V6.29999Z" fill="white"/>
<path d="M48.3 7.70001H46.9V9.10001H48.3V7.70001Z" fill="white"/>
<path d="M48.3 9.10001H46.9V10.5H48.3V9.10001Z" fill="white"/>
<path d="M48.3 13.3H46.9V14.7H48.3V13.3Z" fill="white"/>
<path d="M48.3 14.7H46.9V16.1H48.3V14.7Z" fill="white"/>
<path d="M48.3 17.5H46.9V18.9H48.3V17.5Z" fill="white"/>
<path d="M48.3 20.3H46.9V21.7H48.3V20.3Z" fill="white"/>
<path d="M48.3 24.5H46.9V25.9H48.3V24.5Z" fill="white"/>
<path d="M48.3 27.3H46.9V28.7H48.3V27.3Z" fill="white"/>
<path d="M48.3 28.7H46.9V30.1H48.3V28.7Z" fill="white"/>
<path d="M48.3 30.1H46.9V31.5H48.3V30.1Z" fill="white"/>
<path d="M48.3 31.5H46.9V32.9H48.3V31.5Z" fill="white"/>
<path d="M48.3 39.9H46.9V41.3H48.3V39.9Z" fill="white"/>
<path d="M48.3 44.1H46.9V45.5H48.3V44.1Z" fill="white"/>
<path d="M48.3 48.3H46.9V49.7H48.3V48.3Z" fill="white"/>
<path d="M48.3 51.1H46.9V52.5H48.3V51.1Z" fill="white"/>
<path d="M48.3 52.5H46.9V53.9H48.3V52.5Z" fill="white"/>
<path d="M48.3 53.9H46.9V55.3H48.3V53.9Z" fill="white"/>
<path d="M48.3 60.9H46.9V62.3H48.3V60.9Z" fill="white"/>
<path d="M48.3 65.1H46.9V66.5H48.3V65.1Z" fill="white"/>
<path d="M49.7 3.5H48.3V4.9H49.7V3.5Z" fill="white"/>
<path d="M49.7 6.29999H48.3V7.69999H49.7V6.29999Z" fill="white"/>
<path d="M49.7 11.9H48.3V13.3H49.7V11.9Z" fill="white"/>
<path d="M49.7 13.3H48.3V14.7H49.7V13.3Z" fill="white"/>
<path d="M49.7 14.7H48.3V16.1H49.7V14.7Z" fill="white"/>
<path d="M49.7 16.1H48.3V17.5H49.7V16.1Z" fill="white"/>
<path d="M49.7 17.5H48.3V18.9H49.7V17.5Z" fill="white"/>
<path d="M49.7 20.3H48.3V21.7H49.7V20.3Z" fill="white"/>
<path d="M49.7 23.1H48.3V24.5H49.7V23.1Z" fill="white"/>
<path d="M49.7 28.7H48.3V30.1H49.7V28.7Z" fill="white"/>
<path d="M49.7 32.9H48.3V34.3H49.7V32.9Z" fill="white"/>
<path d="M49.7 35.7H48.3V37.1H49.7V35.7Z" fill="white"/>
<path d="M49.7 37.1H48.3V38.5H49.7V37.1Z" fill="white"/>
<path d="M49.7 38.5H48.3V39.9H49.7V38.5Z" fill="white"/>
<path d="M49.7 41.3H48.3V42.7H49.7V41.3Z" fill="white"/>
<path d="M49.7 44.1H48.3V45.5H49.7V44.1Z" fill="white"/>
<path d="M49.7 46.9H48.3V48.3H49.7V46.9Z" fill="white"/>
<path d="M49.7 48.3H48.3V49.7H49.7V48.3Z" fill="white"/>
<path d="M49.7 51.1H48.3V52.5H49.7V51.1Z" fill="white"/>
<path d="M49.7 56.7H48.3V58.1H49.7V56.7Z" fill="white"/>
<path d="M49.7 59.5H48.3V60.9H49.7V59.5Z" fill="white"/>
<path d="M51.1 3.5H49.7V4.9H51.1V3.5Z" fill="white"/>
<path d="M51.1 6.29999H49.7V7.69999H51.1V6.29999Z" fill="white"/>
<path d="M51.1 7.70001H49.7V9.10001H51.1V7.70001Z" fill="white"/>
<path d="M51.1 9.10001H49.7V10.5H51.1V9.10001Z" fill="white"/>
<path d="M51.1 10.5H49.7V11.9H51.1V10.5Z" fill="white"/>
<path d="M51.1 14.7H49.7V16.1H51.1V14.7Z" fill="white"/>
<path d="M51.1 20.3H49.7V21.7H51.1V20.3Z" fill="white"/>
<path d="M51.1 21.7H49.7V23.1H51.1V21.7Z" fill="white"/>
<path d="M51.1 23.1H49.7V24.5H51.1V23.1Z" fill="white"/>
<path d="M51.1 24.5H49.7V25.9H51.1V24.5Z" fill="white"/>
<path d="M51.1 25.9H49.7V27.3H51.1V25.9Z" fill="white"/>
<path d="M51.1 32.9H49.7V34.3H51.1V32.9Z" fill="white"/>
<path d="M51.1 34.3H49.7V35.7H51.1V34.3Z" fill="white"/>
<path d="M51.1 35.7H49.7V37.1H51.1V35.7Z" fill="white"/>
<path d="M51.1 37.1H49.7V38.5H51.1V37.1Z" fill="white"/>
<path d="M51.1 38.5H49.7V39.9H51.1V38.5Z" fill="white"/>
<path d="M51.1 41.3H49.7V42.7H51.1V41.3Z" fill="white"/>
<path d="M51.1 42.7H49.7V44.1H51.1V42.7Z" fill="white"/>
<path d="M51.1 45.5H49.7V46.9H51.1V45.5Z" fill="white"/>
<path d="M51.1 48.3H49.7V49.7H51.1V48.3Z" fill="white"/>
<path d="M51.1 49.7H49.7V51.1H51.1V49.7Z" fill="white"/>
<path d="M51.1 53.9H49.7V55.3H51.1V53.9Z" fill="white"/>
<path d="M51.1 55.3H49.7V56.7H51.1V55.3Z" fill="white"/>
<path d="M51.1 56.7H49.7V58.1H51.1V56.7Z" fill="white"/>
<path d="M51.1 58.1H49.7V59.5H51.1V58.1Z" fill="white"/>
<path d="M51.1 60.9H49.7V62.3H51.1V60.9Z" fill="white"/>
<path d="M51.1 62.3H49.7V63.7H51.1V62.3Z" fill="white"/>
<path d="M51.1 63.7H49.7V65.1H51.1V63.7Z" fill="white"/>
<path d="M52.5 9.10001H51.1V10.5H52.5V9.10001Z" fill="white"/>
<path d="M52.5 11.9H51.1V13.3H52.5V11.9Z" fill="white"/>
<path d="M52.5 14.7H51.1V16.1H52.5V14.7Z" fill="white"/>
<path d="M52.5 17.5H51.1V18.9H52.5V17.5Z" fill="white"/>
<path d="M52.5 18.9H51.1V20.3H52.5V18.9Z" fill="white"/>
<path d="M52.5 21.7H51.1V23.1H52.5V21.7Z" fill="white"/>
<path d="M52.5 28.7H51.1V30.1H52.5V28.7Z" fill="white"/>
<path d="M52.5 31.5H51.1V32.9H52.5V31.5Z" fill="white"/>
<path d="M52.5 37.1H51.1V38.5H52.5V37.1Z" fill="white"/>
<path d="M52.5 39.9H51.1V41.3H52.5V39.9Z" fill="white"/>
<path d="M52.5 42.7H51.1V44.1H52.5V42.7Z" fill="white"/>
<path d="M52.5 45.5H51.1V46.9H52.5V45.5Z" fill="white"/>
<path d="M52.5 48.3H51.1V49.7H52.5V48.3Z" fill="white"/>
<path d="M52.5 53.9H51.1V55.3H52.5V53.9Z" fill="white"/>
<path d="M52.5 55.3H51.1V56.7H52.5V55.3Z" fill="white"/>
<path d="M52.5 63.7H51.1V65.1H52.5V63.7Z" fill="white"/>
<path d="M53.9 4.89999H52.5V6.29999H53.9V4.89999Z" fill="white"/>
<path d="M53.9 6.29999H52.5V7.69999H53.9V6.29999Z" fill="white"/>
<path d="M53.9 7.70001H52.5V9.10001H53.9V7.70001Z" fill="white"/>
<path d="M53.9 9.10001H52.5V10.5H53.9V9.10001Z" fill="white"/>
<path d="M53.9 13.3H52.5V14.7H53.9V13.3Z" fill="white"/>
<path d="M53.9 14.7H52.5V16.1H53.9V14.7Z" fill="white"/>
<path d="M53.9 17.5H52.5V18.9H53.9V17.5Z" fill="white"/>
<path d="M53.9 21.7H52.5V23.1H53.9V21.7Z" fill="white"/>
<path d="M53.9 23.1H52.5V24.5H53.9V23.1Z" fill="white"/>
<path d="M53.9 25.9H52.5V27.3H53.9V25.9Z" fill="white"/>
<path d="M53.9 28.7H52.5V30.1H53.9V28.7Z" fill="white"/>
<path d="M53.9 30.1H52.5V31.5H53.9V30.1Z" fill="white"/>
<path d="M53.9 32.9H52.5V34.3H53.9V32.9Z" fill="white"/>
<path d="M53.9 34.3H52.5V35.7H53.9V34.3Z" fill="white"/>
<path d="M53.9 35.7H52.5V37.1H53.9V35.7Z" fill="white"/>
<path d="M53.9 38.5H52.5V39.9H53.9V38.5Z" fill="white"/>
<path d="M53.9 41.3H52.5V42.7H53.9V41.3Z" fill="white"/>
<path d="M53.9 45.5H52.5V46.9H53.9V45.5Z" fill="white"/>
<path d="M53.9 48.3H52.5V49.7H53.9V48.3Z" fill="white"/>
<path d="M53.9 51.1H52.5V52.5H53.9V51.1Z" fill="white"/>
<path d="M53.9 55.3H52.5V56.7H53.9V55.3Z" fill="white"/>
<path d="M53.9 56.7H52.5V58.1H53.9V56.7Z" fill="white"/>
<path d="M53.9 63.7H52.5V65.1H53.9V63.7Z" fill="white"/>
<path d="M55.3 3.5H53.9V4.9H55.3V3.5Z" fill="white"/>
<path d="M55.3 7.70001H53.9V9.10001H55.3V7.70001Z" fill="white"/>
<path d="M55.3 9.10001H53.9V10.5H55.3V9.10001Z" fill="white"/>
<path d="M55.3 11.9H53.9V13.3H55.3V11.9Z" fill="white"/>
<path d="M55.3 13.3H53.9V14.7H55.3V13.3Z" fill="white"/>
<path d="M55.3 16.1H53.9V17.5H55.3V16.1Z" fill="white"/>
<path d="M55.3 18.9H53.9V20.3H55.3V18.9Z" fill="white"/>
<path d="M55.3 20.3H53.9V21.7H55.3V20.3Z" fill="white"/>
<path d="M55.3 25.9H53.9V27.3H55.3V25.9Z" fill="white"/>
<path d="M55.3 27.3H53.9V28.7H55.3V27.3Z" fill="white"/>
<path d="M55.3 30.1H53.9V31.5H55.3V30.1Z" fill="white"/>
<path d="M55.3 31.5H53.9V32.9H55.3V31.5Z" fill="white"/>
<path d="M55.3 32.9H53.9V34.3H55.3V32.9Z" fill="white"/>
<path d="M55.3 34.3H53.9V35.7H55.3V34.3Z" fill="white"/>
<path d="M55.3 35.7H53.9V37.1H55.3V35.7Z" fill="white"/>
<path d="M55.3 37.1H53.9V38.5H55.3V37.1Z" fill="white"/>
<path d="M55.3 41.3H53.9V42.7H55.3V41.3Z" fill="white"/>
<path d="M55.3 45.5H53.9V46.9H55.3V45.5Z" fill="white"/>
<path d="M55.3 48.3H53.9V49.7H55.3V48.3Z" fill="white"/>
<path d="M55.3 51.1H53.9V52.5H55.3V51.1Z" fill="white"/>
<path d="M55.3 53.9H53.9V55.3H55.3V53.9Z" fill="white"/>
<path d="M55.3 55.3H53.9V56.7H55.3V55.3Z" fill="white"/>
<path d="M55.3 56.7H53.9V58.1H55.3V56.7Z" fill="white"/>
<path d="M55.3 58.1H53.9V59.5H55.3V58.1Z" fill="white"/>
<path d="M55.3 59.5H53.9V60.9H55.3V59.5Z" fill="white"/>
<path d="M55.3 60.9H53.9V62.3H55.3V60.9Z" fill="white"/>
<path d="M55.3 63.7H53.9V65.1H55.3V63.7Z" fill="white"/>
<path d="M56.7 14.7H55.3V16.1H56.7V14.7Z" fill="white"/>
<path d="M56.7 16.1H55.3V17.5H56.7V16.1Z" fill="white"/>
<path d="M56.7 17.5H55.3V18.9H56.7V17.5Z" fill="white"/>
<path d="M56.7 18.9H55.3V20.3H56.7V18.9Z" fill="white"/>
<path d="M56.7 21.7H55.3V23.1H56.7V21.7Z" fill="white"/>
<path d="M56.7 24.5H55.3V25.9H56.7V24.5Z" fill="white"/>
<path d="M56.7 27.3H55.3V28.7H56.7V27.3Z" fill="white"/>
<path d="M56.7 31.5H55.3V32.9H56.7V31.5Z" fill="white"/>
<path d="M56.7 37.1H55.3V38.5H56.7V37.1Z" fill="white"/>
<path d="M56.7 38.5H55.3V39.9H56.7V38.5Z" fill="white"/>
<path d="M56.7 41.3H55.3V42.7H56.7V41.3Z" fill="white"/>
<path d="M56.7 42.7H55.3V44.1H56.7V42.7Z" fill="white"/>
<path d="M56.7 44.1H55.3V45.5H56.7V44.1Z" fill="white"/>
<path d="M56.7 45.5H55.3V46.9H56.7V45.5Z" fill="white"/>
<path d="M56.7 48.3H55.3V49.7H56.7V48.3Z" fill="white"/>
<path d="M56.7 49.7H55.3V51.1H56.7V49.7Z" fill="white"/>
<path d="M56.7 52.5H55.3V53.9H56.7V52.5Z" fill="white"/>
<path d="M56.7 53.9H55.3V55.3H56.7V53.9Z" fill="white"/>
<path d="M56.7 59.5H55.3V60.9H56.7V59.5Z" fill="white"/>
<path d="M56.7 63.7H55.3V65.1H56.7V63.7Z" fill="white"/>
<path d="M58.1 17.5H56.7V18.9H58.1V17.5Z" fill="white"/>
<path d="M58.1 20.3H56.7V21.7H58.1V20.3Z" fill="white"/>
<path d="M58.1 24.5H56.7V25.9H58.1V24.5Z" fill="white"/>
<path d="M58.1 25.9H56.7V27.3H58.1V25.9Z" fill="white"/>
<path d="M58.1 27.3H56.7V28.7H58.1V27.3Z" fill="white"/>
<path d="M58.1 31.5H56.7V32.9H58.1V31.5Z" fill="white"/>
<path d="M58.1 34.3H56.7V35.7H58.1V34.3Z" fill="white"/>
<path d="M58.1 37.1H56.7V38.5H58.1V37.1Z" fill="white"/>
<path d="M58.1 38.5H56.7V39.9H58.1V38.5Z" fill="white"/>
<path d="M58.1 44.1H56.7V45.5H58.1V44.1Z" fill="white"/>
<path d="M58.1 46.9H56.7V48.3H58.1V46.9Z" fill="white"/>
<path d="M58.1 48.3H56.7V49.7H58.1V48.3Z" fill="white"/>
<path d="M58.1 49.7H56.7V51.1H58.1V49.7Z" fill="white"/>
<path d="M58.1 53.9H56.7V55.3H58.1V53.9Z" fill="white"/>
<path d="M58.1 56.7H56.7V58.1H58.1V56.7Z" fill="white"/>
<path d="M58.1 59.5H56.7V60.9H58.1V59.5Z" fill="white"/>
<path d="M58.1 60.9H56.7V62.3H58.1V60.9Z" fill="white"/>
<path d="M59.5 16.1H58.1V17.5H59.5V16.1Z" fill="white"/>
<path d="M59.5 17.5H58.1V18.9H59.5V17.5Z" fill="white"/>
<path d="M59.5 18.9H58.1V20.3H59.5V18.9Z" fill="white"/>
<path d="M59.5 20.3H58.1V21.7H59.5V20.3Z" fill="white"/>
<path d="M59.5 21.7H58.1V23.1H59.5V21.7Z" fill="white"/>
<path d="M59.5 23.1H58.1V24.5H59.5V23.1Z" fill="white"/>
<path d="M59.5 25.9H58.1V27.3H59.5V25.9Z" fill="white"/>
<path d="M59.5 27.3H58.1V28.7H59.5V27.3Z" fill="white"/>
<path d="M59.5 30.1H58.1V31.5H59.5V30.1Z" fill="white"/>
<path d="M59.5 31.5H58.1V32.9H59.5V31.5Z" fill="white"/>
<path d="M59.5 37.1H58.1V38.5H59.5V37.1Z" fill="white"/>
<path d="M59.5 39.9H58.1V41.3H59.5V39.9Z" fill="white"/>
<path d="M59.5 44.1H58.1V45.5H59.5V44.1Z" fill="white"/>
<path d="M59.5 45.5H58.1V46.9H59.5V45.5Z" fill="white"/>
<path d="M59.5 46.9H58.1V48.3H59.5V46.9Z" fill="white"/>
<path d="M59.5 48.3H58.1V49.7H59.5V48.3Z" fill="white"/>
<path d="M59.5 53.9H58.1V55.3H59.5V53.9Z" fill="white"/>
<path d="M59.5 59.5H58.1V60.9H59.5V59.5Z" fill="white"/>
<path d="M59.5 63.7H58.1V65.1H59.5V63.7Z" fill="white"/>
<path d="M60.9 14.7H59.5V16.1H60.9V14.7Z" fill="white"/>
<path d="M60.9 17.5H59.5V18.9H60.9V17.5Z" fill="white"/>
<path d="M60.9 18.9H59.5V20.3H60.9V18.9Z" fill="white"/>
<path d="M60.9 31.5H59.5V32.9H60.9V31.5Z" fill="white"/>
<path d="M60.9 32.9H59.5V34.3H60.9V32.9Z" fill="white"/>
<path d="M60.9 34.3H59.5V35.7H60.9V34.3Z" fill="white"/>
<path d="M60.9 35.7H59.5V37.1H60.9V35.7Z" fill="white"/>
<path d="M60.9 37.1H59.5V38.5H60.9V37.1Z" fill="white"/>
<path d="M60.9 38.5H59.5V39.9H60.9V38.5Z" fill="white"/>
<path d="M60.9 39.9H59.5V41.3H60.9V39.9Z" fill="white"/>
<path d="M60.9 41.3H59.5V42.7H60.9V41.3Z" fill="white"/>
<path d="M60.9 44.1H59.5V45.5H60.9V44.1Z" fill="white"/>
<path d="M60.9 45.5H59.5V46.9H60.9V45.5Z" fill="white"/>
<path d="M60.9 46.9H59.5V48.3H60.9V46.9Z" fill="white"/>
<path d="M60.9 48.3H59.5V49.7H60.9V48.3Z" fill="white"/>
<path d="M60.9 49.7H59.5V51.1H60.9V49.7Z" fill="white"/>
<path d="M60.9 51.1H59.5V52.5H60.9V51.1Z" fill="white"/>
<path d="M60.9 52.5H59.5V53.9H60.9V52.5Z" fill="white"/>
<path d="M60.9 53.9H59.5V55.3H60.9V53.9Z" fill="white"/>
<path d="M60.9 55.3H59.5V56.7H60.9V55.3Z" fill="white"/>
<path d="M60.9 56.7H59.5V58.1H60.9V56.7Z" fill="white"/>
<path d="M60.9 58.1H59.5V59.5H60.9V58.1Z" fill="white"/>
<path d="M60.9 59.5H59.5V60.9H60.9V59.5Z" fill="white"/>
<path d="M60.9 60.9H59.5V62.3H60.9V60.9Z" fill="white"/>
<path d="M60.9 65.1H59.5V66.5H60.9V65.1Z" fill="white"/>
<path d="M62.3 25.9H60.9V27.3H62.3V25.9Z" fill="white"/>
<path d="M62.3 27.3H60.9V28.7H62.3V27.3Z" fill="white"/>
<path d="M62.3 28.7H60.9V30.1H62.3V28.7Z" fill="white"/>
<path d="M62.3 30.1H60.9V31.5H62.3V30.1Z" fill="white"/>
<path d="M62.3 37.1H60.9V38.5H62.3V37.1Z" fill="white"/>
<path d="M62.3 39.9H60.9V41.3H62.3V39.9Z" fill="white"/>
<path d="M62.3 41.3H60.9V42.7H62.3V41.3Z" fill="white"/>
<path d="M62.3 44.1H60.9V45.5H62.3V44.1Z" fill="white"/>
<path d="M62.3 45.5H60.9V46.9H62.3V45.5Z" fill="white"/>
<path d="M62.3 46.9H60.9V48.3H62.3V46.9Z" fill="white"/>
<path d="M62.3 55.3H60.9V56.7H62.3V55.3Z" fill="white"/>
<path d="M62.3 56.7H60.9V58.1H62.3V56.7Z" fill="white"/>
<path d="M62.3 58.1H60.9V59.5H62.3V58.1Z" fill="white"/>
<path d="M62.3 59.5H60.9V60.9H62.3V59.5Z" fill="white"/>
<path d="M62.3 62.3H60.9V63.7H62.3V62.3Z" fill="white"/>
<path d="M62.3 65.1H60.9V66.5H62.3V65.1Z" fill="white"/>
<path d="M63.7 20.3H62.3V21.7H63.7V20.3Z" fill="white"/>
<path d="M63.7 21.7H62.3V23.1H63.7V21.7Z" fill="white"/>
<path d="M63.7 23.1H62.3V24.5H63.7V23.1Z" fill="white"/>
<path d="M63.7 27.3H62.3V28.7H63.7V27.3Z" fill="white"/>
<path d="M63.7 28.7H62.3V30.1H63.7V28.7Z" fill="white"/>
<path d="M63.7 30.1H62.3V31.5H63.7V30.1Z" fill="white"/>
<path d="M63.7 31.5H62.3V32.9H63.7V31.5Z" fill="white"/>
<path d="M63.7 32.9H62.3V34.3H63.7V32.9Z" fill="white"/>
<path d="M63.7 34.3H62.3V35.7H63.7V34.3Z" fill="white"/>
<path d="M63.7 37.1H62.3V38.5H63.7V37.1Z" fill="white"/>
<path d="M63.7 38.5H62.3V39.9H63.7V38.5Z" fill="white"/>
<path d="M63.7 39.9H62.3V41.3H63.7V39.9Z" fill="white"/>
<path d="M63.7 41.3H62.3V42.7H63.7V41.3Z" fill="white"/>
<path d="M63.7 44.1H62.3V45.5H63.7V44.1Z" fill="white"/>
<path d="M63.7 45.5H62.3V46.9H63.7V45.5Z" fill="white"/>
<path d="M63.7 49.7H62.3V51.1H63.7V49.7Z" fill="white"/>
<path d="M63.7 59.5H62.3V60.9H63.7V59.5Z" fill="white"/>
<path d="M63.7 60.9H62.3V62.3H63.7V60.9Z" fill="white"/>
<path d="M63.7 63.7H62.3V65.1H63.7V63.7Z" fill="white"/>
<path d="M65.1 14.7H63.7V16.1H65.1V14.7Z" fill="white"/>
<path d="M65.1 16.1H63.7V17.5H65.1V16.1Z" fill="white"/>
<path d="M65.1 21.7H63.7V23.1H65.1V21.7Z" fill="white"/>
<path d="M65.1 24.5H63.7V25.9H65.1V24.5Z" fill="white"/>
<path d="M65.1 31.5H63.7V32.9H65.1V31.5Z" fill="white"/>
<path d="M65.1 32.9H63.7V34.3H65.1V32.9Z" fill="white"/>
<path d="M65.1 34.3H63.7V35.7H65.1V34.3Z" fill="white"/>
<path d="M65.1 38.5H63.7V39.9H65.1V38.5Z" fill="white"/>
<path d="M65.1 39.9H63.7V41.3H65.1V39.9Z" fill="white"/>
<path d="M65.1 41.3H63.7V42.7H65.1V41.3Z" fill="white"/>
<path d="M65.1 44.1H63.7V45.5H65.1V44.1Z" fill="white"/>
<path d="M65.1 45.5H63.7V46.9H65.1V45.5Z" fill="white"/>
<path d="M65.1 48.3H63.7V49.7H65.1V48.3Z" fill="white"/>
<path d="M65.1 53.9H63.7V55.3H65.1V53.9Z" fill="white"/>
<path d="M65.1 55.3H63.7V56.7H65.1V55.3Z" fill="white"/>
<path d="M65.1 58.1H63.7V59.5H65.1V58.1Z" fill="white"/>
<path d="M65.1 59.5H63.7V60.9H65.1V59.5Z" fill="white"/>
<path d="M65.1 60.9H63.7V62.3H65.1V60.9Z" fill="white"/>
<path d="M66.5 16.1H65.1V17.5H66.5V16.1Z" fill="white"/>
<path d="M66.5 17.5H65.1V18.9H66.5V17.5Z" fill="white"/>
<path d="M66.5 20.3H65.1V21.7H66.5V20.3Z" fill="white"/>
<path d="M66.5 24.5H65.1V25.9H66.5V24.5Z" fill="white"/>
<path d="M66.5 30.1H65.1V31.5H66.5V30.1Z" fill="white"/>
<path d="M66.5 32.9H65.1V34.3H66.5V32.9Z" fill="white"/>
<path d="M66.5 35.7H65.1V37.1H66.5V35.7Z" fill="white"/>
<path d="M66.5 37.1H65.1V38.5H66.5V37.1Z" fill="white"/>
<path d="M66.5 38.5H65.1V39.9H66.5V38.5Z" fill="white"/>
<path d="M66.5 41.3H65.1V42.7H66.5V41.3Z" fill="white"/>
<path d="M66.5 44.1H65.1V45.5H66.5V44.1Z" fill="white"/>
<path d="M66.5 45.5H65.1V46.9H66.5V45.5Z" fill="white"/>
<path d="M66.5 48.3H65.1V49.7H66.5V48.3Z" fill="white"/>
<path d="M66.5 51.1H65.1V52.5H66.5V51.1Z" fill="white"/>
<path d="M66.5 52.5H65.1V53.9H66.5V52.5Z" fill="white"/>
<path d="M66.5 53.9H65.1V55.3H66.5V53.9Z" fill="white"/>
<path d="M66.5 58.1H65.1V59.5H66.5V58.1Z" fill="white"/>
<path d="M66.5 60.9H65.1V62.3H66.5V60.9Z" fill="white"/>
<path d="M66.5 65.1H65.1V66.5H66.5V65.1Z" fill="white"/>
<path fill-rule="evenodd" clip-rule="evenodd" d="M3.5 3.5V13.3H13.3V3.5H3.5ZM4.9 4.9H11.9V11.9H4.9V4.9Z" fill="white"/>
<path d="M7.7 6.29999H6.3V7.69999H7.7V6.29999Z" fill="white"/>
<path d="M7.7 7.70001H6.3V9.10001H7.7V7.70001Z" fill="white"/>
<path d="M7.7 9.10001H6.3V10.5H7.7V9.10001Z" fill="white"/>
<path d="M9.1 6.29999H7.7V7.69999H9.1V6.29999Z" fill="white"/>
<path d="M9.1 7.70001H7.7V9.10001H9.1V7.70001Z" fill="white"/>
<path d="M9.1 9.10001H7.7V10.5H9.1V9.10001Z" fill="white"/>
<path d="M10.5 6.29999H9.1V7.69999H10.5V6.29999Z" fill="white"/>
<path d="M10.5 7.70001H9.1V9.10001H10.5V7.70001Z" fill="white"/>
<path d="M10.5 9.10001H9.1V10.5H10.5V9.10001Z" fill="white"/>
<path fill-rule="evenodd" clip-rule="evenodd" d="M66.5 3.5L56.7 3.5V13.3H66.5V3.5ZM65.1 4.9V11.9H58.1V4.9H65.1Z" fill="white"/>
<path d="M60.9 6.29999H59.5V7.69999H60.9V6.29999Z" fill="white"/>
<path d="M60.9 7.70001H59.5V9.10001H60.9V7.70001Z" fill="white"/>
<path d="M60.9 9.10001H59.5V10.5H60.9V9.10001Z" fill="white"/>
<path d="M62.3 6.29999H60.9V7.69999H62.3V6.29999Z" fill="white"/>
<path d="M62.3 7.70001H60.9V9.10001H62.3V7.70001Z" fill="white"/>
<path d="M62.3 9.10001H60.9V10.5H62.3V9.10001Z" fill="white"/>
<path d="M63.7 6.29999H62.3V7.69999H63.7V6.29999Z" fill="white"/>
<path d="M63.7 7.70001H62.3V9.10001H63.7V7.70001Z" fill="white"/>
<path d="M63.7 9.10001H62.3V10.5H63.7V9.10001Z" fill="white"/>
<path fill-rule="evenodd" clip-rule="evenodd" d="M3.5 66.5H13.3V56.7H3.5L3.5 66.5ZM4.9 65.1V58.1H11.9V65.1H4.9Z" fill="white"/>
<path d="M7.7 59.5H6.3V60.9H7.7V59.5Z" fill="white"/>
<path d="M7.7 60.9H6.3V62.3H7.7V60.9Z" fill="white"/>
<path d="M7.7 62.3H6.3V63.7H7.7V62.3Z" fill="white"/>
<path d="M9.1 59.5H7.7V60.9H9.1V59.5Z" fill="white"/>
<path d="M9.1 60.9H7.7V62.3H9.1V60.9Z" fill="white"/>
<path d="M9.1 62.3H7.7V63.7H9.1V62.3Z" fill="white"/>
<path d="M10.5 59.5H9.1V60.9H10.5V59.5Z" fill="white"/>
<path d="M10.5 60.9H9.1V62.3H10.5V60.9Z" fill="white"/>
<path d="M10.5 62.3H9.1V63.7H10.5V62.3Z" fill="white"/>
</mask>
<g mask="url(#mask0_103_3)">
<path d="M70 0H0V70H70V0Z" fill="black"/>
</g>
</g>
<defs>
<clipPath id="clip0_103_3">
<rect width="70" height="70" fill="white"/>
</clipPath>
</defs>
</svg>
